<svg xmlns="http://www.w3.org/2000/svg" width="754" height="140" viewBox="0 0 753.6 139.6" class="ualfutures-logo">
<style>
  .a{
    fill:#271D66;
  }
</style>
<path d="M0 0h92.9v30.6H39.6v29.2h42.5v29H39.6v48.7H0V0z" class="a"/>
<path d="M103.7 102.5V36.9h34.4v60c0 11.3 4.4 16.9 14.2 16.9 10.4 0 17.1-6.2 17.1-19V36.9h34.4v100.6H169.4v-15.6c-5.4 10.4-15.2 17.9-31.9 17.9C118.1 139.8 103.7 127.9 103.7 102.5z" class="a"/>
<path d="M228.8 105.2V60.4h-12.1V36.9h12.1V16h34.4v21h19.8v23.5h-19.8v41.5c0 7.3 3.7 10.6 10.2 10.6 3.8 0 6.7-0.6 9.8-1.7v26.2c-4.4 1.1-11 2.9-19 2.9C241.5 139.8 228.8 128.9 228.8 105.2z" class="a"/>
<path d="M298.3 102.5V36.9h34.4v60c0 11.3 4.4 16.9 14.2 16.9 10.4 0 17.1-6.2 17.1-19V36.9h34.4v100.6h-34.4v-15.6c-5.4 10.4-15.2 17.9-31.9 17.9C312.7 139.8 298.3 127.9 298.3 102.5z" class="a"/>
<path d="M418.8 36.9h34.4v20c6.3-15 16.9-21.5 32.5-21.3v32.1c-20.9-0.6-32.5 6-32.5 22.1v47.7h-34.4V36.9z" class="a"/>
<path d="M494.8 88.5v-1.5c0-32.3 24-52.7 54.4-52.7 27.5 0 51.1 15.8 51.1 51.9v9h-70.8c1 13.3 8.7 21 21 21 11.4 0 16.1-5.2 17.5-11.9h32.3c-3.1 22.7-20.6 35.6-51 35.6C517.8 139.8 494.8 121.4 494.8 88.5zM566.9 75.8c-0.6-12.1-6.6-18.8-17.7-18.8 -10.4 0-17.5 6.7-19.2 18.8H566.9z" class="a"/>
<path d="M609.4 105.6h31.8c1.1 7.3 4.4 11.4 14.2 11.4 8.5 0 12.3-3.3 12.3-8.3 0-4.8-4.8-7.1-18.6-9.1 -26.9-3.5-38.3-11.3-38.3-32.3 0-22.3 19.8-33.1 43.1-33.1 24.8 0 42.1 8.5 44.4 32.5h-31.1c-1.4-6.7-5-10-12.9-10 -7.5 0-11.3 3.3-11.3 7.9 0 4.8 4.6 6.7 16.9 8.3 27.9 3.5 41.3 10.8 41.3 32.3 0 23.8-17.7 34.6-45.6 34.6C626.9 139.8 610.1 127.9 609.4 105.6z" class="a"/>
<path d="M713.8 120.2c0-10.8 8.3-19.4 19.6-19.4 11.5 0 20.2 8.6 20.2 19.4 0 10.7-8.6 19.4-20.2 19.4C722.1 139.6 713.8 131 713.8 120.2z" class="a"/>
</svg>